<?xml version="1.0" encoding="utf-8"?>
<!-- Svg Vector Icons : http://www.onlinewebfonts.com/icon -->
<!DOCTYPE svg PUBLIC "-//W3C//DTD SVG 1.1//EN" "http://www.w3.org/Graphics/SVG/1.1/DTD/svg11.dtd">
<svg version="1.1" xmlns="http://www.w3.org/2000/svg" xmlns:xlink="http://www.w3.org/1999/xlink" x="0px" y="0px" viewBox="0 0 256 256" enable-background="new 0 0 256 256" xml:space="preserve">
<metadata> Svg Vector Icons : http://www.onlinewebfonts.com/icon </metadata>
<g><g><path fill="#dee4ec" d="M89,9.6H30.9C19,9.6,10,19.3,10,30.5v58.2c0,11.9,9.7,20.9,20.9,20.9H89c11.9,0,20.9-9.7,20.9-20.9V31.2C109.9,19.3,100.2,9.6,89,9.6L89,9.6z M89,79c0,6-4.5,10.4-10.5,10.4H41.3c-6,0-10.4-4.5-10.4-10.4V41.7c0-6,4.5-10.4,10.4-10.4h37.3c6,0,10.5,4.5,10.5,10.4V79L89,79z M89,131.2H30.9c-11.9,0-20.9,9.7-20.9,20.9v58.2c0,11.9,9.7,20.9,20.9,20.9H89c11.9,0,20.9-9.7,20.9-20.9v-58.2C109.9,140.9,100.2,131.2,89,131.2L89,131.2z M89,200.5c0,6-4.5,10.4-10.5,10.4H41.3c-6,0-10.4-4.5-10.4-10.4v-37.3c0-6,4.5-10.4,10.4-10.4h37.3c6,0,10.5,4.5,10.5,10.4V200.5L89,200.5z M147.2,110.3h58.2c11.9,0,20.9-9.7,20.9-20.9V31.2c0-11.9-9.7-20.9-20.9-20.9h-58.2c-11.9,0-20.9,9.7-20.9,20.9v58.2C125.6,100.6,135.3,110.3,147.2,110.3L147.2,110.3z M147.2,41.7c0-6,4.5-10.4,10.4-10.4h37.3c6,0,10.4,4.5,10.4,10.4V79c0,6-4.5,10.4-10.4,10.4h-37.3c-6,0-10.4-4.5-10.4-10.4L147.2,41.7L147.2,41.7z M242.7,228.1l-17.9-17.9c-0.7-0.7-0.7-0.7-1.5-0.7c5.2-8.2,8.2-17.1,8.2-27.6c0-27.6-22.4-50-50-50s-50,22.4-50,50s22.4,50,50,50c10.4,0,19.4-3,27.6-8.2c0,0.7,0.7,0.7,0.7,1.5l17.9,17.9c4.5,4.5,11.2,4.5,14.9,0C247.1,239.3,247.1,232.6,242.7,228.1L242.7,228.1z M181.5,211c-16.4,0-29.1-12.7-29.1-29.1s12.7-29.1,29.1-29.1c16.4,0,29.1,12.7,29.1,29.1C210.6,197.5,197.2,211,181.5,211L181.5,211z"/></g></g>
</svg>